<?xml version="1.0" encoding="utf-8"?>
<svg viewBox="0 0 383.839 73.152" xmlns="http://www.w3.org/2000/svg" xmlns:bx="https://boxy-svg.com">
  <g transform="matrix(1, 0, 0, 1, -49.999969, -347.424011)" bx:origin="0.168 -0.588">
    <path d="m 368.02925,-5.256 -20.304,-48.456 c -0.648,-1.656 -1.8,-2.52 -3.528,-2.52 -1.656,0 -2.808,0.864 -3.528,2.52 l -20.232,48.312 c -0.288,0.648 -0.36,1.224 -0.36,1.656 0,1.08 0.288,1.944 1.008,2.664 0.72,0.72 1.584,1.08 2.664,1.08 0.72,0 1.368,-0.144 2.016,-0.576 0.576,-0.432 1.08,-0.936 1.44,-1.728 l 17.136,-41.904 16.848,41.904 c 0.216,0.72 0.72,1.296 1.368,1.728 0.648,0.432 1.296,0.576 2.088,0.576 1.008,0 1.944,-0.36 2.664,-1.08 0.72,-0.72 1.08,-1.584 1.08,-2.592 0,-0.432 -0.144,-0.936 -0.36,-1.584 z" stroke-linejoin="miter" stroke-miterlimit="2" transform="translate(0 297.424) translate(50 50) scale(1) translate(-320.07725 56.232)" style="paint-order: fill; stroke: rgb(255, 193, 7); stroke-width: 0px; fill: rgb(255, 193, 7);"/>
    <path d="m 409.94225,-33.768 c -3.888,-3.888 -8.568,-5.832 -14.112,-5.832 -5.544,0 -10.224,1.944 -14.112,5.832 -3.888,3.888 -5.832,8.64 -5.832,14.112 v 33.12 c 0,1.008 0.288,1.8 1.008,2.448 0.648,0.72 1.44,1.008 2.448,1.008 0.936,0 1.728,-0.288 2.376,-1.008 0.72,-0.648 1.08,-1.44 1.08,-2.448 v -18 c 3.672,3.24 8.064,4.896 13.032,4.896 5.544,0 10.224,-1.944 14.112,-5.832 3.888,-3.96 5.904,-8.64 5.904,-14.184 0,-5.472 -2.016,-10.224 -5.904,-14.112 z m -14.112,27.216 c -3.6,0 -6.696,-1.296 -9.216,-3.816 -2.592,-2.592 -3.816,-5.688 -3.816,-9.288 0,-2.304 0.576,-4.536 1.728,-6.552 1.152,-2.016 2.736,-3.6 4.752,-4.752 2.016,-1.152 4.176,-1.728 6.552,-1.728 3.6,0 6.696,1.296 9.216,3.816 2.592,2.592 3.888,5.616 3.888,9.216 0,3.6 -1.296,6.696 -3.888,9.288 -2.52,2.52 -5.616,3.816 -9.216,3.816 z" stroke-linejoin="miter" stroke-miterlimit="2" transform="translate(0 297.424) translate(105.80900000000001 66.632) scale(1) translate(-375.88625 39.6)" style="paint-order: fill; stroke: rgb(255, 193, 7); stroke-width: 0px; fill: rgb(255, 193, 7);"/>
    <path d="m 460.56725,-33.768 c -3.888,-3.888 -8.568,-5.832 -14.112,-5.832 -5.544,0 -10.224,1.944 -14.112,5.832 -3.888,3.888 -5.832,8.64 -5.832,14.112 v 33.12 c 0,1.008 0.288,1.8 1.008,2.448 0.648,0.72 1.44,1.008 2.448,1.008 0.936,0 1.728,-0.288 2.376,-1.008 0.72,-0.648 1.08,-1.44 1.08,-2.448 v -18 c 3.672,3.24 8.064,4.896 13.032,4.896 5.544,0 10.224,-1.944 14.112,-5.832 3.888,-3.96 5.904,-8.64 5.904,-14.184 0,-5.472 -2.016,-10.224 -5.904,-14.112 z m -14.112,27.216 c -3.6,0 -6.696,-1.296 -9.216,-3.816 -2.592,-2.592 -3.816,-5.688 -3.816,-9.288 0,-2.304 0.576,-4.536 1.728,-6.552 1.152,-2.016 2.736,-3.6 4.752,-4.752 2.016,-1.152 4.176,-1.728 6.552,-1.728 3.6,0 6.696,1.296 9.216,3.816 2.592,2.592 3.888,5.616 3.888,9.216 0,3.6 -1.296,6.696 -3.888,9.288 -2.52,2.52 -5.616,3.816 -9.216,3.816 z" stroke-linejoin="miter" stroke-miterlimit="2" transform="translate(0 297.424) translate(156.43400000000003 66.632) scale(1) translate(-426.51125 39.6)" style="paint-order: fill; stroke: rgb(255, 193, 7); stroke-width: 0px; fill: rgb(255, 193, 7);"/>
    <path d="m 476.70425,-55.224 c -0.72,0.72 -1.008,1.584 -1.008,2.592 v 39.312 c 0,2.592 0.432,4.896 1.368,6.912 0.864,2.016 2.16,3.6 3.816,4.752 1.656,1.152 3.528,1.656 5.616,1.656 h 0.144 c 1.44,0 2.592,-0.288 3.528,-1.008 0.864,-0.648 1.368,-1.512 1.368,-2.592 0,-1.008 -0.36,-1.872 -0.936,-2.592 -0.576,-0.648 -1.368,-1.008 -2.304,-1.008 h -1.8 c -1.08,0 -1.944,-0.576 -2.592,-1.728 -0.72,-1.152 -1.008,-2.592 -1.008,-4.392 v -39.312 c 0,-1.008 -0.36,-1.872 -1.008,-2.592 -0.72,-0.648 -1.584,-1.008 -2.592,-1.008 -1.08,0 -1.944,0.36 -2.592,1.008 z" stroke-linejoin="miter" stroke-miterlimit="2" transform="translate(0 297.424) translate(205.61900000000006 50) scale(1) translate(-475.69625 56.232)" style="paint-order: fill; stroke: rgb(255, 193, 7); stroke-width: 0px; fill: rgb(255, 193, 7);"/>
    <path d="m 513.60312,0.288 c 4.75201,0 8.928,-1.44 12.6,-4.464 0.79201,-0.576 1.15201,-1.368 1.29601,-2.304 0.072,-1.008 -0.144,-1.8 -0.792,-2.592 -0.57601,-0.72 -1.36801,-1.152 -2.304,-1.224 -0.93601,-0.072 -1.80001,0.144 -2.52001,0.792 -2.448,1.944 -5.184,2.88 -8.28,2.88 -3.6,0 -6.696,-1.224 -9.21599,-3.816 -2.59201,-2.52 -3.81601,-5.616 -3.81601,-9.216 0,-3.6 1.224,-6.696 3.81601,-9.288 2.51999,-2.52 5.61599,-3.816 9.21599,-3.816 2.952,0 5.616,0.936 7.99201,2.736 2.304,1.8 3.81599,4.104 4.60799,6.912 h -12.6 c -0.936,0 -1.79999,0.36 -2.448,1.008 -0.648,0.648 -1.00799,1.512 -1.00799,2.448 0,0.936 0.35999,1.8 1.00799,2.448 0.64801,0.648 1.512,1.008 2.448,1.008 h 16.56001 c 0.93599,0 1.72799,-0.36 2.376,-1.008 0.72,-0.648 1.07999,-1.512 1.07999,-2.448 0,-5.544 -2.016,-10.224 -5.904,-14.112 -3.88799,-3.888 -8.568,-5.904 -14.112,-5.904 -5.544,0 -10.224,2.016 -14.112,5.904 -3.888,3.888 -5.83199,8.568 -5.83199,14.112 0,5.544 1.94399,10.224 5.83199,14.112 3.888,3.888 8.568,5.832 14.112,5.832 z" stroke-linejoin="miter" stroke-miterlimit="2" transform="translate(0 297.424) translate(223.58188000000007 66.56) scale(1) translate(-493.65913 39.672)" style="paint-order: fill; stroke: rgb(255, 193, 7); stroke-width: 0px; fill: rgb(255, 193, 7);"/>
    <path d="m 543.12987,-38.376 c -0.71999,0.72 -1.00799,1.584 -1.00799,2.664 v 32.04 c 0,1.08 0.288,1.944 1.00799,2.664 0.72,0.72 1.58401,1.008 2.664,1.008 1.08,0 1.94401,-0.288 2.664,-1.008 0.648,-0.72 1.008,-1.584 1.008,-2.664 v -32.04 c 0,-1.08 -0.36,-1.944 -1.008,-2.664 -0.71999,-0.648 -1.584,-1.008 -2.664,-1.008 -1.07999,0 -1.944,0.36 -2.664,1.008 z m 5.976,-15.48 c -0.93599,-0.936 -2.016,-1.44 -3.312,-1.44 -1.29599,0 -2.448,0.504 -3.38399,1.44 -0.936,0.936 -1.36801,2.016 -1.36801,3.312 0,1.296 0.43201,2.448 1.36801,3.384 0.93599,0.936 2.088,1.368 3.38399,1.368 1.296,0 2.37601,-0.432 3.312,-1.368 0.936,-0.936 1.44001,-2.088 1.44001,-3.384 0,-1.296 -0.50401,-2.376 -1.44001,-3.312 z" stroke-linejoin="miter" stroke-miterlimit="2" transform="translate(0 297.424) translate(270.96462000000014 50.936) scale(1) translate(-541.04187 55.296)" style="paint-order: fill; stroke: rgb(255, 193, 7); stroke-width: 0px; fill: rgb(255, 193, 7);"/>
    <path d="m 594.80675,-33.192 c -3.744,-4.32 -8.496,-6.48 -14.112,-6.48 -3.744,0 -7.128,0.864 -10.08,2.592 -3.024,1.728 -5.328,4.104 -6.984,7.128 -1.656,3.024 -2.448,6.48 -2.448,10.296 0,3.744 0.792,7.2 2.52,10.224 1.728,3.024 4.104,5.4 7.128,7.128 3.024,1.728 6.408,2.592 10.224,2.592 5.184,0 9.504,-1.584 12.96,-4.824 0.576,-0.576 0.864,-1.224 0.864,-1.944 0,-0.936 -0.504,-1.8 -1.368,-2.592 -0.576,-0.432 -1.224,-0.648 -1.872,-0.648 -0.864,0 -1.8,0.36 -2.664,1.008 -2.016,1.728 -4.68,2.52 -7.92,2.52 -2.52,0 -4.752,-0.576 -6.696,-1.728 -1.944,-1.152 -3.456,-2.736 -4.536,-4.752 -1.08,-2.016 -1.584,-4.392 -1.584,-6.984 0,-4.032 1.152,-7.344 3.456,-9.792 2.304,-2.448 5.256,-3.744 9,-3.744 1.8,0 3.384,0.36 4.824,0.936 1.44,0.576 2.736,1.512 3.96,2.808 0.72,0.864 1.656,1.296 2.808,1.296 0.576,0 1.152,-0.144 1.656,-0.504 1.008,-0.72 1.584,-1.584 1.584,-2.664 0,-0.72 -0.288,-1.296 -0.72,-1.872 z" stroke-linejoin="miter" stroke-miterlimit="2" transform="translate(0 297.424) translate(291.1055000000002 66.56) scale(1) translate(-561.18275 39.672)" style="paint-order: fill; stroke: rgb(255, 193, 7); stroke-width: 0px; fill: rgb(255, 193, 7);"/>
    <path d="m 637.03925,-3.024 c 0,-0.864 -0.288,-1.584 -0.792,-2.16 l -13.968,-17.136 13.248,-11.808 c 0.72,-0.576 1.152,-1.44 1.152,-2.448 0,-0.864 -0.36,-1.584 -0.936,-2.232 -0.648,-0.72 -1.44,-1.152 -2.448,-1.152 -0.864,0 -1.656,0.36 -2.232,0.936 l -17.496,15.624 v -29.304 c 0,-1.008 -0.36,-1.872 -1.008,-2.52 -0.648,-0.648 -1.512,-1.008 -2.52,-1.008 -1.08,0 -1.944,0.36 -2.592,1.008 -0.648,0.648 -0.936,1.512 -0.936,2.52 v 49.176 c 0,1.08 0.288,1.944 0.936,2.592 0.648,0.648 1.512,0.936 2.592,0.936 1.008,0 1.872,-0.288 2.52,-0.936 0.648,-0.648 1.008,-1.512 1.008,-2.592 v -11.016 l 3.6,-3.168 13.68,16.92 c 0.648,0.864 1.512,1.296 2.592,1.296 0.792,0 1.584,-0.288 2.304,-0.864 0.864,-0.72 1.296,-1.584 1.296,-2.664 z" stroke-linejoin="miter" stroke-miterlimit="2" transform="translate(0 297.424) translate(336.4340000000001 50) scale(1) translate(-606.51125 56.232)" style="paint-order: fill; stroke: rgb(255, 193, 7); stroke-width: 0px; fill: rgb(255, 193, 7);"/>
    <path d="m 647.00112,-55.224 c -0.72,0.72 -1.008,1.584 -1.008,2.592 v 39.312 c 0,2.592 0.432,4.896 1.36801,6.912 0.864,2.016 2.15999,3.6 3.816,4.752 1.65599,1.152 3.52799,1.656 5.616,1.656 h 0.144 c 1.43999,0 2.592,-0.288 3.52799,-1.008 0.864,-0.648 1.368,-1.512 1.368,-2.592 0,-1.008 -0.36,-1.872 -0.936,-2.592 -0.57599,-0.648 -1.36799,-1.008 -2.304,-1.008 h -1.79999 c -1.08001,0 -1.94401,-0.576 -2.592,-1.728 -0.72,-1.152 -1.00801,-2.592 -1.00801,-4.392 v -39.312 c 0,-1.008 -0.36,-1.872 -1.008,-2.592 -0.72,-0.648 -1.58399,-1.008 -2.592,-1.008 -1.08,0 -1.94399,0.36 -2.592,1.008 z" stroke-linejoin="miter" stroke-miterlimit="2" transform="translate(0 297.424) translate(375.91587000000004 50) scale(1) translate(-645.99312 56.232)" style="paint-order: fill; stroke: rgb(255, 193, 7); stroke-width: 0px; fill: rgb(255, 193, 7);"/>
    <path d="m 683.9,0.288 c 4.752,0 8.928,-1.44 12.6,-4.464 0.792,-0.576 1.152,-1.368 1.296,-2.304 0.072,-1.008 -0.144,-1.8 -0.792,-2.592 -0.576,-0.72 -1.368,-1.152 -2.304,-1.224 -0.936,-0.072 -1.8,0.144 -2.52,0.792 -2.448,1.944 -5.184,2.88 -8.28,2.88 -3.6,0 -6.696,-1.224 -9.216,-3.816 -2.592,-2.52 -3.816,-5.616 -3.816,-9.216 0,-3.6 1.224,-6.696 3.816,-9.288 2.52,-2.52 5.616,-3.816 9.216,-3.816 2.952,0 5.616,0.936 7.992,2.736 2.304,1.8 3.816,4.104 4.608,6.912 h -12.6 c -0.936,0 -1.8,0.36 -2.448,1.008 -0.648,0.648 -1.008,1.512 -1.008,2.448 0,0.936 0.36,1.8 1.008,2.448 0.648,0.648 1.512,1.008 2.448,1.008 h 16.56 c 0.936,0 1.728,-0.36 2.376,-1.008 0.72,-0.648 1.08,-1.512 1.08,-2.448 0,-5.544 -2.016,-10.224 -5.904,-14.112 -3.888,-3.888 -8.568,-5.904 -14.112,-5.904 -5.544,0 -10.224,2.016 -14.112,5.904 -3.888,3.888 -5.832,8.568 -5.832,14.112 0,5.544 1.944,10.224 5.832,14.112 3.888,3.888 8.568,5.832 14.112,5.832 z" stroke-linejoin="miter" stroke-miterlimit="2" transform="translate(0 297.424) translate(393.87875 66.56) scale(1) translate(-663.956 39.672)" style="paint-order: fill; stroke: rgb(255, 193, 7); stroke-width: 0px; fill: rgb(255, 193, 7);"/>
  </g>
</svg>